<svg width="129" height="100" viewBox="0 0 129 100" fill="none" xmlns="http://www.w3.org/2000/svg">
<g clip-path="url(#clip0_438_304)">
<path d="M9.70175 51.6789C9.3255 51.2789 8.92775 50.9497 8.92775 50.2039V47.7289C8.92775 46.6747 9.0245 45.7122 8.02475 44.9872C7.24 44.4039 5.93387 44.1955 4.93412 44.1955C2.983 44.1955 0.800746 44.7622 0.34387 46.633C0.295495 46.8289 0.48362 46.933 0.650245 46.9664L2.639 47.133C2.82712 47.1247 2.9615 46.983 2.99912 46.8414C3.17112 46.1955 3.8645 45.883 4.64925 45.883C5.07387 45.883 5.55225 46.008 5.7995 46.2955C6.08975 46.6247 6.05212 47.0705 6.05212 47.4497V47.658C4.85887 47.758 3.3055 47.8289 2.1875 48.208C1.52302 48.4153 0.956788 48.7759 0.565489 49.241C0.17419 49.706 -0.0232641 50.2531 -0.000129548 50.808C-0.000129548 52.4622 1.34362 53.2872 3.07437 53.2872C4.53637 53.2872 5.33187 53.0205 6.46062 52.133C6.8315 52.5497 6.94975 52.758 7.63237 53.1955C7.70899 53.2273 7.79623 53.2403 7.88258 53.2329C7.96894 53.2254 8.05036 53.1979 8.11612 53.1539L9.69637 52.1039C9.86837 51.9955 9.83612 51.8247 9.70175 51.6789ZM6.04675 49.2789C6.04675 49.8997 6.06825 50.4122 5.6705 50.9664C5.34262 51.4122 4.82125 51.6872 4.24612 51.6872C3.456 51.6872 2.99912 51.2205 2.99912 50.533C2.99912 49.1789 4.56325 48.933 6.05212 48.933L6.04675 49.2789ZM36.6144 51.6789C36.2381 51.2789 35.8404 50.9497 35.8404 50.2039V47.7289C35.8404 46.6747 35.9371 45.7122 34.9374 44.9872C34.1473 44.4039 32.8411 44.1955 31.8468 44.1955C29.8903 44.1955 27.708 44.7622 27.2565 46.633C27.2027 46.8289 27.3962 46.9372 27.5629 46.9664L29.5516 47.133C29.7344 47.1247 29.8741 46.983 29.9064 46.8414C30.0784 46.1955 30.7771 45.883 31.5565 45.883C31.9811 45.883 32.4595 46.008 32.7067 46.2955C32.997 46.6247 32.9594 47.0705 32.9594 47.4497V47.658C31.7715 47.7622 30.2127 47.8289 29.1001 48.208C28.4346 48.4146 27.8673 48.775 27.475 49.2401C27.0826 49.7052 26.8844 50.2526 26.9071 50.808C26.9071 52.4622 28.2509 53.2872 29.9816 53.2872C31.4436 53.2872 32.2391 53.0205 33.3679 52.133C33.7388 52.5497 33.8624 52.758 34.545 53.1955C34.6216 53.2273 34.7089 53.2403 34.7952 53.2329C34.8816 53.2254 34.963 53.1979 35.0288 53.1539V53.158C35.4426 52.8747 36.1898 52.3747 36.609 52.1039C36.7702 51.9955 36.7541 51.8247 36.6144 51.6789ZM32.5777 50.9664C32.2499 51.4122 31.7285 51.6872 31.1534 51.6872C30.3632 51.6872 29.9064 51.2205 29.9064 50.533C29.9064 49.1789 31.4759 48.933 32.9594 48.933V49.2789C32.9594 49.8997 32.9809 50.4122 32.5777 50.9664ZM60.3128 53.1747H58.2649C58.167 53.1725 58.074 53.1408 58.0057 53.0864C57.9375 53.0319 57.8993 52.959 57.8994 52.883L57.894 44.7164C57.9009 44.6405 57.9458 44.5697 58.0191 44.5191C58.0924 44.4685 58.1883 44.4421 58.2864 44.4455H60.1891C60.2746 44.4459 60.3573 44.4688 60.4237 44.5104C60.4902 44.5521 60.5363 44.61 60.5546 44.6747V45.9247H60.5976C61.1728 44.808 61.9736 44.2747 63.3926 44.2747C63.8657 44.2565 64.3366 44.3356 64.7576 44.5038C65.1786 44.6721 65.5347 44.9237 65.7899 45.233C66.3274 45.8914 66.3274 46.9872 66.3274 47.7789V52.9205C66.3118 52.993 66.263 53.0586 66.1899 53.1053C66.1168 53.1521 66.0243 53.1767 65.9296 53.1747H63.871C63.7809 53.1733 63.6945 53.1468 63.6274 53.1002C63.5603 53.0536 63.5171 52.9898 63.5055 52.9205V48.483C63.5055 47.5914 63.6399 46.2872 62.2262 46.2872C61.9687 46.2958 61.7197 46.3616 61.5091 46.4769C61.2985 46.5921 61.1351 46.7519 61.0384 46.9372C60.7899 47.4288 60.6782 47.9556 60.7105 48.483V52.883C60.7063 52.9622 60.6624 53.037 60.5881 53.0915C60.5138 53.146 60.415 53.1758 60.3128 53.1747ZM51.6644 44.2747C54.712 44.2747 56.3568 46.3039 56.3568 48.8789C56.3568 51.3705 54.54 53.3497 51.6644 53.3497C48.6759 53.3497 47.0419 51.3205 47.0419 48.7955C47.0419 46.2539 48.692 44.2747 51.6644 44.2747ZM51.6859 45.9414C50.1701 45.9414 50.0734 47.5414 50.0734 48.5372C50.0734 49.533 50.0519 51.6622 51.6644 51.6622C53.2554 51.6622 53.3306 49.9455 53.3306 48.8997C53.3651 48.1698 53.2619 47.4398 53.0243 46.733C52.7931 46.1664 52.3363 45.9414 51.6805 45.9414M13.7276 53.1747H11.6744C11.5809 53.1739 11.4911 53.1462 11.4225 53.0969C11.3539 53.0476 11.3115 52.9803 11.3035 52.908V44.7414C11.3035 44.5747 11.4862 44.4497 11.7012 44.4497H13.6147C13.8136 44.4539 13.9749 44.5747 13.991 44.7205V45.7872H14.0286C14.5231 44.7539 15.4637 44.2747 16.7269 44.2747C18.0115 44.2747 18.8177 44.7539 19.3929 45.7872C19.5954 45.334 19.9795 44.9427 20.489 44.6706C20.9986 44.3986 21.607 44.2598 22.2255 44.2747C23.0855 44.2747 24.0261 44.5497 24.6012 45.1664C25.257 45.8539 25.1226 46.8539 25.1226 47.7289V52.883C25.1226 53.0455 24.9399 53.1747 24.7249 53.1747H22.6716C22.5737 53.1725 22.4807 53.1408 22.4125 53.0864C22.3442 53.0319 22.3061 52.959 22.3061 52.883V48.5497C22.3061 48.208 22.3437 47.3497 22.247 47.0247C22.0911 46.4747 21.6342 46.3164 21.0376 46.3164C20.7705 46.321 20.5112 46.3874 20.2929 46.5069C20.0746 46.6264 19.9072 46.7936 19.8121 46.9872C19.5971 47.4039 19.624 48.0872 19.624 48.5539V52.883C19.624 53.0497 19.4466 53.1747 19.2262 53.1747H17.173C17.0751 53.1725 16.9821 53.1408 16.9139 53.0864C16.8456 53.0319 16.8075 52.959 16.8075 52.883V48.5497C16.8075 47.6414 16.9956 46.2997 15.539 46.2997C14.0662 46.2997 14.12 47.608 14.12 48.5497V52.883C14.12 52.9224 14.1098 52.9614 14.0899 52.9976C14.07 53.0338 14.0408 53.0666 14.0042 53.0938C13.9675 53.1211 13.9241 53.1423 13.8766 53.1562C13.829 53.1701 13.7784 53.1764 13.7276 53.1747ZM38.3397 45.8872V44.7205C38.3397 44.6432 38.3794 44.569 38.45 44.5143C38.5205 44.4596 38.6162 44.4289 38.716 44.4289H45.4724C45.6874 44.4289 45.8594 44.5455 45.8594 44.7205V45.7205C45.8594 45.8872 45.6766 46.108 45.3541 46.4539L41.8604 50.3247C43.1504 50.2997 44.5264 50.4497 45.7089 50.9622C45.9722 51.0789 46.0421 51.2539 46.0636 51.4205V52.6664C46.0636 52.833 45.8218 53.033 45.5691 52.933C44.4652 52.4943 43.2421 52.2661 42.0015 52.2676C40.7609 52.269 39.5387 52.5 38.4365 52.9414C38.2054 53.0372 37.9581 52.8414 37.9581 52.6705V51.4872C37.9581 51.2997 37.9581 50.9747 38.2108 50.6872L42.2581 46.183H38.7321C38.6818 46.1841 38.6317 46.1774 38.5848 46.1633C38.5379 46.1491 38.4952 46.1278 38.4591 46.1006C38.423 46.0734 38.3943 46.0409 38.3748 46.0049C38.3552 45.969 38.3451 45.9304 38.3451 45.8914M42.7365 54.8914C42.242 54.4039 39.4792 54.6622 38.2323 54.7747C37.856 54.8122 37.8022 54.558 38.1409 54.3705C40.3446 53.1705 43.962 53.5164 44.3759 53.9205C44.8059 54.3247 44.2684 57.133 42.199 58.4747C41.8819 58.683 41.5809 58.5705 41.7206 58.2997C42.1883 57.3997 43.2256 55.383 42.7365 54.8914ZM41.1294 56.3122C37.2755 58.5164 31.6909 59.6872 26.8802 59.6872C20.4528 59.7129 14.2443 57.8779 9.47062 54.5414C9.1105 54.2914 9.433 53.9455 9.86837 54.1414C15.1694 56.4956 21.1741 57.7311 27.2834 57.7247C31.5565 57.7247 36.2489 57.033 40.5704 55.6122C41.2207 55.4039 41.769 55.9455 41.1294 56.3122ZM124.603 53.4247C122.768 53.4247 121.357 53.0344 120.368 52.2539C119.382 51.4705 118.89 50.3497 118.89 48.8914C118.89 47.3969 119.393 46.2247 120.4 45.3747C121.407 44.5247 122.808 44.0997 124.603 44.0997C125.979 44.0997 127.058 44.358 127.839 44.8747C128.616 45.3941 129.005 46.0844 129.005 46.9455C129.033 47.3285 128.932 47.7105 128.711 48.0539C128.491 48.3973 128.159 48.6902 127.748 48.9039C126.909 49.3428 125.676 49.5622 124.05 49.5622C123.204 49.5622 122.469 49.4997 121.846 49.3747C121.939 50.1441 122.24 50.6955 122.749 51.0289C123.258 51.3622 124.032 51.5289 125.071 51.5289C125.486 51.5289 125.89 51.508 126.28 51.4664C126.674 51.4275 127.219 51.3386 127.914 51.1997C127.995 51.1811 128.078 51.17 128.161 51.1664C128.412 51.1664 128.538 51.2983 128.538 51.5622V52.3539C128.538 52.54 128.505 52.6691 128.441 52.7414C128.339 52.8367 128.202 52.9064 128.049 52.9414C126.949 53.2631 125.784 53.4269 124.609 53.4247M123.872 48.0122C124.625 48.0122 125.173 47.9233 125.517 47.7455C125.857 47.5677 126.028 47.2955 126.028 46.9289C126.028 46.2066 125.472 45.8455 124.361 45.8455C122.939 45.8455 122.115 46.5219 121.889 47.8747C122.48 47.9664 123.141 48.0122 123.872 48.0122ZM100.131 53.1664C99.9373 53.1664 99.7939 53.1316 99.7008 53.0622C99.6148 52.9927 99.5718 52.8844 99.5718 52.7372V44.7914C99.5718 44.6303 99.6165 44.5191 99.7061 44.458C99.7921 44.3914 99.9337 44.3594 100.131 44.3622H101.727C102.071 44.3622 102.279 44.4872 102.351 44.7372L102.528 45.2039C103.316 44.8039 104.024 44.5191 104.651 44.3497C105.282 44.183 105.93 44.0997 106.597 44.0997C107.93 44.0997 108.871 44.4678 109.419 45.2039C110.171 44.815 110.883 44.5344 111.553 44.3622C112.219 44.19 112.909 44.1039 113.622 44.1039C114.658 44.1039 115.462 44.3261 116.035 44.7705C116.605 45.2205 116.89 45.8483 116.89 46.6539V52.7372C116.89 52.8844 116.849 52.9927 116.766 53.0622C116.684 53.1316 116.541 53.1664 116.336 53.1664H114.197C114.007 53.1664 113.867 53.1316 113.778 53.0622C113.688 52.9927 113.644 52.8844 113.644 52.7372V47.2039C113.644 46.4261 113.192 46.0358 112.289 46.033C111.483 46.033 110.675 46.1816 109.865 46.4789V52.7372C109.865 52.8872 109.824 52.9955 109.741 53.0622C109.659 53.1316 109.516 53.1664 109.311 53.1664H107.177C106.987 53.1664 106.844 53.1316 106.747 53.0622C106.661 52.9955 106.618 52.8872 106.618 52.7372V47.2039C106.618 46.4261 106.167 46.0358 105.264 46.033C104.433 46.033 103.617 46.1872 102.818 46.4955V52.7372C102.818 52.8872 102.777 52.9955 102.695 53.0622C102.612 53.1316 102.469 53.1664 102.265 53.1664H100.131ZM95.1965 42.9997C94.7018 43.0177 94.217 42.8879 93.842 42.6372C93.6691 42.5123 93.5338 42.3595 93.4456 42.1896C93.3573 42.0196 93.3184 41.8368 93.3314 41.6539C93.3314 41.2372 93.5016 40.9108 93.842 40.6747C94.217 40.4239 94.7018 40.2942 95.1965 40.3122C95.6912 40.2942 96.176 40.4239 96.551 40.6747C96.895 40.9136 97.067 41.24 97.067 41.6539C97.067 42.2789 96.895 42.3955 96.551 42.6372C96.176 42.8879 95.6912 43.0177 95.1965 42.9997ZM94.1323 53.1664C93.9388 53.1664 93.7972 53.1316 93.7076 53.0622C93.618 52.9955 93.5733 52.8872 93.5733 52.7372V44.7914C93.5733 44.6303 93.618 44.5191 93.7076 44.458C93.7972 44.3914 93.9388 44.3594 94.1323 44.3622H96.2661C96.4704 44.3622 96.6137 44.3927 96.6961 44.4539C96.7785 44.5177 96.8198 44.6303 96.8198 44.7914V52.7372C96.8198 52.8872 96.7785 52.9955 96.6961 53.0622C96.6137 53.1316 96.4704 53.1664 96.2661 53.1664H94.1323ZM85.2474 53.1664C85.0539 53.1664 84.9123 53.1316 84.8228 53.0622C84.7368 52.9955 84.6938 52.8872 84.6938 52.7372V44.7914C84.6938 44.6303 84.7368 44.5191 84.8228 44.458C84.9123 44.3914 85.0539 44.3594 85.2474 44.3622H86.8491C87.1896 44.3622 87.3956 44.4872 87.4673 44.7372L87.7575 45.6705C88.2335 45.2397 88.8006 44.8747 89.4345 44.5914C89.9559 44.3859 90.532 44.2774 91.1169 44.2747H91.4286C91.6329 44.2747 91.7798 44.3066 91.8694 44.3705C91.959 44.4344 92.0038 44.5455 92.0038 44.7039V46.1539C92.0038 46.3039 91.9625 46.4122 91.8801 46.4789C91.7977 46.5483 91.6544 46.583 91.4501 46.583L91.047 46.5664C90.8398 46.5515 90.6316 46.5459 90.4235 46.5497C90.0831 46.5497 89.6692 46.5872 89.1819 46.6622C88.753 46.7172 88.3342 46.8123 87.9349 46.9455V52.7372C87.9349 52.8872 87.8955 52.9955 87.8166 53.0622C87.7306 53.1316 87.5855 53.1664 87.3813 53.1664H85.2474ZM71.9335 56.7164C71.74 56.7164 71.5985 56.6844 71.5089 56.6205C71.4229 56.5566 71.3799 56.4455 71.3799 56.2872V44.7914C71.3799 44.6303 71.4229 44.5191 71.5089 44.458C71.5985 44.3914 71.74 44.3594 71.9335 44.3622H73.5353C73.8757 44.3622 74.0817 44.4872 74.1534 44.7372L74.3146 45.1872C74.779 44.8429 75.3271 44.5738 75.9271 44.3955C76.5384 44.2082 77.1888 44.1093 77.846 44.1039C79.2865 44.1039 80.4242 44.5108 81.2591 45.3247C82.0976 46.1386 82.5169 47.2414 82.5169 48.633C82.5169 49.5886 82.309 50.4219 81.8934 51.133C81.5348 51.7906 80.9512 52.3597 80.2056 52.7789C79.4844 53.1582 78.6315 53.3588 77.76 53.3539C77.1696 53.3547 76.583 53.2801 76.0239 53.133C75.5113 52.9949 75.0372 52.7828 74.6264 52.508V56.2872C74.6264 56.4455 74.5852 56.5566 74.5028 56.6205C74.4203 56.6844 74.2752 56.7164 74.0674 56.7164H71.9335ZM76.8033 51.4622C77.6346 51.4622 78.2438 51.2441 78.6308 50.808C79.0249 50.3719 79.222 49.6816 79.222 48.7372C79.222 47.7844 79.0303 47.09 78.6469 46.6539C78.2599 46.2177 77.6453 45.9997 76.8033 45.9997C76.0356 46.0001 75.2821 46.1598 74.621 46.4622V50.9955C75.2772 51.3073 76.0336 51.4691 76.8033 51.4622Z" fill="#FC3503"/>
</g>
<defs>
<clipPath id="clip0_438_304">
<rect width="129" height="100" fill="white"/>
</clipPath>
</defs>
</svg>
