<svg width="93" height="97" viewBox="0 0 93 97" fill="none" xmlns="http://www.w3.org/2000/svg">
<path d="M17.484 0C12.847 0 8.39983 1.92129 5.12095 5.3412C1.84206 8.76111 0 13.3995 0 18.236V78.764C0 83.6005 1.84206 88.2389 5.12095 91.6588C8.39983 95.0787 12.847 97 17.484 97H75.516C77.812 97 80.0856 96.5283 82.2068 95.6119C84.3281 94.6954 86.2555 93.3522 87.8791 91.6588C89.5026 89.9654 90.7905 87.9551 91.6691 85.7426C92.5478 83.5301 93 81.1588 93 78.764V18.236C93 15.8412 92.5478 13.4699 91.6691 11.2574C90.7905 9.04489 89.5026 7.03457 87.8791 5.3412C86.2555 3.64783 84.3281 2.30458 82.2068 1.38813C80.0856 0.471688 77.812 0 75.516 0H17.484ZM72.0471 15.3454C72.8283 15.554 73.6002 15.9032 73.8745 16.5773C73.084 19.0072 73.1352 21.6601 73.0189 24.1094C74.1814 24.1579 75.3253 24.2209 77.2318 24.2209C78.1805 24.2209 79.2779 24.2209 80.4962 24.1821C81.1007 24.3228 81.175 25.2491 81.375 25.7099C81.2119 26.0219 81.0085 26.3091 80.7705 26.5634H72.9445C72.912 27.6159 72.8655 28.4695 72.8655 30.0554C72.8593 31.0513 72.8686 32.1846 72.8934 33.4553C72.7586 34.0955 71.8797 34.1634 71.438 34.3768C71.1401 34.2048 70.8663 33.9911 70.6242 33.7414V26.5441C70.0708 26.5343 69.6431 26.5198 68.8944 26.5246C68.1783 26.5246 67.3645 26.5247 66.3834 26.5634C65.7696 26.5634 65.1977 26.4519 63.8399 26.059C63.643 25.9823 63.471 25.8493 63.3435 25.6751C63.216 25.5009 63.1382 25.2927 63.1191 25.0745C63.3237 24.2597 63.6678 23.4449 64.3095 23.1588C66.3416 23.8766 68.5317 23.8474 70.6196 23.9347C70.6335 23.183 70.6568 22.4797 70.6568 21.3643C70.6568 20.6174 70.6568 19.7686 70.6196 18.7452C70.6196 18.105 70.7125 17.4988 71.0938 16.0826C71.1702 15.8787 71.3001 15.7013 71.4687 15.5709C71.6374 15.4405 71.8378 15.3623 72.0471 15.3454ZM25.7331 23.2848C31.7311 23.1526 37.7076 24.074 43.4124 26.0105C47.1758 27.2263 50.8292 28.7233 54.3725 30.5016C57.111 31.9152 59.7732 33.4841 62.3472 35.2013C62.9982 35.6475 66.7647 38.572 67.3599 39.0182C68.5689 40.061 70.1824 41.5305 71.3496 42.7527C73.875 45.2949 76.018 48.2201 77.7062 51.4294C78.0317 52.1084 78.2874 52.7777 78.7291 53.5489C79.0826 54.286 79.3678 55.0459 79.5847 55.8283C79.6964 56.2794 79.8173 56.9584 79.8591 57.0166C80.073 57.0166 80.3334 58.4086 80.2776 58.9469C80.3132 60.2414 80.2244 61.5363 80.0126 62.8124L80.087 62.7008C79.9189 63.5911 79.6714 64.463 79.3476 65.3053C78.956 66.2137 78.5262 67.1037 78.0596 67.9727C77.0532 69.688 75.8336 71.2569 74.4325 72.6384C69.9475 76.1761 64.6168 78.3605 59.0224 78.9531C55.1561 79.4407 51.2419 79.3296 47.4067 78.6234C46.322 78.4064 45.2414 78.1671 44.1657 77.9055V79.2975C44.1081 79.701 44.0018 80.0954 43.8495 80.4712C43.7127 80.7449 43.5167 80.9816 43.277 81.1626C43.0373 81.3435 42.7604 81.4639 42.4685 81.5139C41.6855 81.7327 40.8567 81.6921 40.097 81.3976C39.5532 81.1046 39.0941 80.6657 38.7672 80.126C38.4402 79.5864 38.2572 78.9655 38.2369 78.3275C38.0742 77.212 37.8789 75.3447 37.8789 75.3447L36.1584 74.4717C33.8917 73.3054 31.7273 71.9341 29.6903 70.3735C28.5535 69.4356 27.4418 68.4652 26.3562 67.4635C24.914 66.1501 23.6749 64.6123 22.6827 62.9045C22.2909 62.3103 22.0463 61.6241 21.9708 60.9073C21.8954 60.1904 21.9914 59.4653 22.2502 58.7966C23.5798 56.7255 25.5361 55.1785 27.807 54.4025C30.2884 53.3357 32.8624 52.5204 35.4935 51.9678C36.27 51.8546 37.0424 51.7123 37.8091 51.5409L37.8789 51.4633C37.9577 50.5119 37.9825 49.5564 37.9533 48.6018C37.9533 47.8646 38.4974 43.0826 38.6508 42.0398C38.7996 40.9291 39.0925 39.8379 39.5343 38.8097C39.6721 38.6624 39.8566 38.5723 40.0533 38.5562C40.2501 38.5401 40.4457 38.5992 40.6038 38.7224C42.7614 40.1143 43.3473 44.8382 43.5101 47.239C43.5891 48.694 43.6774 50.9444 43.6774 50.9444C43.6774 50.9444 46.0955 50.8522 47.5881 50.9444C49.1195 51.022 50.6385 51.1837 52.1451 51.4294C54.8653 51.8271 57.5205 52.5934 60.0501 53.6895C61.8218 54.5431 63.24 56.0224 64.0351 57.8799C64.2911 58.5247 64.3952 59.224 64.3385 59.9194C64.2819 60.6148 64.0662 61.2858 63.7097 61.8763C63.2974 62.6543 62.7099 63.3159 61.9978 63.8043C61.2858 64.2927 60.4705 64.5931 59.6223 64.6796C58.6135 64.6936 57.6154 64.4628 56.7067 64.0054C56.6617 63.9602 56.6259 63.906 56.6015 63.846C56.577 63.786 56.5644 63.7214 56.5644 63.6562C56.5644 63.5911 56.577 63.5265 56.6015 63.4665C56.6259 63.4065 56.6617 63.3523 56.7067 63.3071C56.7067 63.2197 57.6368 62.7444 58.1064 62.4631C58.3556 62.3436 58.5763 62.168 58.7528 61.949C59.1713 61.5659 59.5805 61.1682 59.5433 60.6541C59.4875 60.1497 58.8086 59.6113 58.1948 59.3543C53.5619 57.7792 48.7307 56.9292 43.8588 56.8323L44.1843 73.138C44.1843 73.138 45.477 73.3854 46.5 73.5551C47.1045 73.6327 49.6062 73.8946 50.2526 73.8946C55.4978 74.244 60.7513 73.3606 65.6255 71.3095C67.6513 70.4074 69.4672 69.0609 70.9497 67.3616C71.9059 66.203 72.6278 64.8548 73.072 63.398C73.5163 61.9412 73.6738 60.4057 73.5351 58.8838C72.8851 55.1743 71.3247 51.7037 69.006 48.8104C63.3076 42.0092 56.1109 36.7531 48.0345 33.4941C40.6447 30.2264 32.7488 28.3811 24.7287 28.0476C21.7326 27.9118 18.7317 28.1545 15.7914 28.7702C15.4705 28.843 15.1357 28.969 14.8149 29.0612C14.5471 29.1051 14.2952 29.2223 14.0848 29.4007L13.9686 29.5074L14.243 29.619C14.4755 29.7645 15.5403 29.8081 16.0564 29.9342C16.2914 29.9616 16.5181 30.0406 16.7217 30.166C16.9253 30.2914 17.1011 30.4603 17.2375 30.6617C17.3341 30.796 17.3863 30.9594 17.3863 31.1273C17.3863 31.2952 17.3341 31.4586 17.2375 31.5929C16.7028 32.267 14.7266 32.1507 13.8942 32.0197C13.0339 31.9081 11.8575 31.5832 11.6529 30.7393C11.5323 29.7613 11.7826 28.7729 12.3504 27.9845C12.8096 27.1592 13.4304 26.4442 14.1723 25.8859C14.9142 25.3277 15.7606 24.9389 16.6563 24.7447C19.6227 23.9257 22.6635 23.4347 25.7285 23.28L25.7331 23.2848ZM37.8556 56.9196C37.8556 56.9196 35.5632 57.0845 33.959 57.2446C31.2315 57.5478 28.5378 58.1211 25.9144 58.9566C25.2635 59.1991 23.9103 59.8102 23.822 60.5231C23.8115 60.8793 23.8779 61.2333 24.0164 61.5591C24.1548 61.8848 24.3617 62.1739 24.6218 62.4049C24.9008 62.7444 26.4818 64.3304 26.9188 64.7087C29.5089 66.8427 32.3454 68.6323 35.3586 70.0437C36.3258 70.4559 37.8975 71.0428 37.8975 71.0428C37.8975 71.0428 37.8092 66.3383 37.851 61.7308L37.8556 56.9196Z" fill="#FC3503" fill-opacity="0.83"/>
</svg>
