<svg width="1145" height="30" viewBox="0 0 1145 30" fill="none" xmlns="http://www.w3.org/2000/svg">
<g filter="url(#filter0_d_412_180)">
<path d="M4.33333 11C4.33333 16.891 9.10896 21.6667 15 21.6667C20.891 21.6667 25.6667 16.891 25.6667 11C25.6667 5.10896 20.891 0.333334 15 0.333334C9.10896 0.333334 4.33333 5.10896 4.33333 11ZM1119.33 11C1119.33 16.891 1124.11 21.6667 1130 21.6667C1135.89 21.6667 1140.67 16.891 1140.67 11C1140.67 5.10896 1135.89 0.333334 1130 0.333334C1124.11 0.333334 1119.33 5.10896 1119.33 11ZM15 13L1130 13V9L15 9V13Z" fill="#FC3503"/>
</g>
<defs>
<filter id="filter0_d_412_180" x="0.333496" y="0.333008" width="1144.33" height="29.334" filterUnits="userSpaceOnUse" color-interpolation-filters="sRGB">
<feFlood flood-opacity="0" result="BackgroundImageFix"/>
<feColorMatrix in="SourceAlpha" type="matrix" values="0 0 0 0 0 0 0 0 0 0 0 0 0 0 0 0 0 0 127 0" result="hardAlpha"/>
<feOffset dy="4"/>
<feGaussianBlur stdDeviation="2"/>
<feComposite in2="hardAlpha" operator="out"/>
<feColorMatrix type="matrix" values="0 0 0 0 0 0 0 0 0 0 0 0 0 0 0 0 0 0 0.25 0"/>
<feBlend mode="normal" in2="BackgroundImageFix" result="effect1_dropShadow_412_180"/>
<feBlend mode="normal" in="SourceGraphic" in2="effect1_dropShadow_412_180" result="shape"/>
</filter>
</defs>
</svg>
