<svg width="89" height="86" viewBox="0 0 89 86" fill="none" xmlns="http://www.w3.org/2000/svg">
<path d="M12.3413 34.4434H78.8021V69.4669C78.8021 71.2074 78.0865 72.8767 76.8128 74.1075C75.5391 75.3383 73.8115 76.0297 72.0102 76.0297H19.1331C17.3318 76.0297 15.6043 75.3383 14.3306 74.1075C13.0569 72.8767 12.3413 71.2074 12.3413 69.4669V34.4434Z" stroke="#DE1A1A" stroke-linecap="round" stroke-linejoin="round"/>
<path d="M55.6806 54.4951L41.2942 45.7732C41.1571 45.6899 40.9994 45.6436 40.8376 45.6392C40.6757 45.6347 40.5156 45.6724 40.3739 45.7482C40.2322 45.8239 40.1142 45.9351 40.0321 46.0699C39.95 46.2048 39.9069 46.3585 39.9072 46.515V63.9587C39.9069 64.1151 39.95 64.2688 40.0321 64.4037C40.1142 64.5386 40.2322 64.6497 40.3739 64.7255C40.5156 64.8013 40.6757 64.8389 40.8376 64.8345C40.9994 64.8301 41.1571 64.7838 41.2942 64.7004L55.6806 55.9786C55.8101 55.8994 55.9167 55.7899 55.9906 55.6602C56.0644 55.5305 56.1032 55.3849 56.1032 55.2368C56.1032 55.0888 56.0644 54.9432 55.9906 54.8135C55.9167 54.6838 55.8101 54.5743 55.6806 54.4951ZM69.5702 10.61L67.6122 18.255L57.9242 19.9768L59.8822 12.3318L49.7825 14.127L47.8227 21.7739L38.1347 23.4957L40.0945 15.8506L29.993 17.6459L28.035 25.2909L18.347 27.0145L20.305 19.3694L12.0521 20.8368C11.7595 20.8886 11.4804 20.9955 11.2307 21.1517C10.9809 21.3078 10.7655 21.5099 10.5968 21.7466C10.428 21.9832 10.3091 22.2497 10.2471 22.5308C10.185 22.8118 10.1809 23.102 10.235 23.3846L12.3413 34.4445L77.7044 22.822L75.5981 11.762C75.5445 11.4793 75.4338 11.2096 75.2723 10.9683C75.1107 10.727 74.9015 10.5188 74.6566 10.3557C74.4117 10.1927 74.1359 10.0778 73.8451 10.0179C73.5542 9.95788 73.2539 9.95392 72.9615 10.0062L69.5702 10.61Z" stroke="#DE1A1A" stroke-linecap="round" stroke-linejoin="round"/>
</svg>
