<svg width="51" height="51" viewBox="0 0 51 51" fill="none" xmlns="http://www.w3.org/2000/svg">
<path d="M42.5 34V21.25H46.75V34C46.75 35.1272 46.3022 36.2082 45.5052 37.0052C44.7082 37.8022 43.6272 38.25 42.5 38.25H17C15.8728 38.25 14.7918 37.8022 13.9948 37.0052C13.1978 36.2082 12.75 35.1272 12.75 34V8.5C12.75 6.14125 14.6412 4.25 17 4.25H34V8.5H17V34H42.5ZM23.1838 15.045L29.75 21.6112L43.7537 7.6075L46.75 10.625L29.75 27.625L20.1875 18.0625L23.1838 15.045ZM34 42.5V46.75H8.5C7.37283 46.75 6.29183 46.3022 5.4948 45.5052C4.69777 44.7082 4.25 43.6272 4.25 42.5V14.875H8.5V42.5H34Z" fill="black"/>
</svg>
