<svg width="92" height="76" viewBox="0 0 92 76" fill="none" xmlns="http://www.w3.org/2000/svg">
<g clip-path="url(#clip0_438_308)">
<path d="M32.775 31.3115C36.3055 31.3115 39.1307 32.0399 41.2888 33.6612C42.7647 34.7664 43.5888 36.3402 43.5658 37.99C43.5622 38.8043 43.3585 39.6095 42.9671 40.3569C42.5757 41.1042 42.0048 41.7781 41.2888 42.3379C39.2687 43.8705 36.1215 44.6875 32.7788 44.6875C29.4362 44.6875 26.3388 43.8705 24.288 42.3379C23.547 41.793 22.957 41.1226 22.5581 40.3723C22.1592 39.6219 21.9608 38.8094 21.9765 37.99C21.9765 36.3497 22.8122 34.7759 24.288 33.6612C26.2047 32.2235 29.5933 31.3115 32.775 31.3115ZM32.7865 42.9332C34.5537 42.9332 36.1905 42.4234 37.3405 41.4829C38.4905 40.5329 39.0003 39.3929 39.0003 37.99C39.0003 36.6474 38.433 35.3902 37.3405 34.4972C36.2135 33.5789 34.5307 33.0595 32.7865 33.0595C31.0423 33.0595 29.3633 33.5757 28.2248 34.4972C27.1323 35.3902 26.5612 36.6474 26.5612 37.99C26.5378 39.2898 27.1356 40.5447 28.2248 41.4829C29.3633 42.4139 31.0347 42.9332 32.7865 42.9332ZM14.2293 36.7012C14.8427 36.83 15.4381 37.002 16.0157 37.2174C16.551 37.4219 17.0419 37.6979 17.4685 38.0344C18.2237 38.6867 18.653 39.5607 18.6415 40.4632C18.6497 40.9391 18.5226 41.41 18.2702 41.8379C18.0179 42.2658 17.6474 42.6388 17.1887 42.9269C16.3756 43.434 15.4533 43.809 14.4708 44.032C12.9911 44.4171 11.4449 44.5989 9.89384 44.5704C8.54451 44.5704 7.80084 44.4405 6.77734 44.2632L6.48218 44.2125C5.35422 44.0069 4.25281 43.7121 3.19318 43.3322C3.14579 43.3057 3.08938 43.2923 3.03218 43.2942C2.94811 43.2958 2.86817 43.3246 2.80943 43.3743C2.75069 43.424 2.71782 43.4907 2.71784 43.5602V44.203H0.463843V39.5227H2.47251C2.48579 39.997 2.6685 40.4575 2.99768 40.8464C3.81034 41.6697 4.68434 41.9864 5.51618 42.2397C6.92301 42.6197 8.39884 42.8224 9.87084 42.8604C11.9907 42.8604 13.2288 42.436 13.4972 42.3442L13.5317 42.3315L13.5547 42.3252C13.7923 42.2524 14.7507 41.9642 14.7507 41.0839C14.7507 40.2162 13.8537 40.0262 13.2672 39.9027L13.1828 39.8869C12.5312 39.7412 11.0285 39.6082 9.38784 39.4657L8.80518 39.415C7.26672 39.285 5.7358 39.1001 4.21668 38.8609C2.30768 38.5125 1.55634 37.9362 1.08868 37.5784L1.05801 37.553C0.376262 36.9525 -0.0021801 36.1596 9.44823e-06 35.3364C9.44823e-06 33.7657 1.30334 32.8157 2.90568 32.233C4.64881 31.6183 6.52655 31.3068 8.42184 31.3179C11.5652 31.3274 14.122 32.1729 15.042 32.5655C15.4138 32.7302 15.5978 32.5275 15.5978 32.3755V31.9037H17.618V35.9824H15.8087C15.6478 35.3766 15.2521 34.8307 14.6817 34.4275C14.3345 34.1974 13.9516 34.0068 13.5432 33.8607C12.027 33.3304 10.394 33.0662 8.74768 33.0849C7.04951 33.0849 5.42418 33.354 4.60768 33.7657C4.09912 34.0275 3.84356 34.3505 3.84101 34.7347C3.84101 35.2825 4.40068 35.501 4.68434 35.5675C5.43568 35.7575 7.10701 35.8937 8.40651 36.0014L9.18851 36.0679C10.442 36.1724 13.0678 36.4605 14.2293 36.7012ZM83.8695 33.544V32.0272H92V33.5155H90.1753C89.516 33.5155 89.2477 33.62 88.7493 34.0824L83.2792 39.244C83.2222 39.3078 83.1962 39.3869 83.2063 39.4657V41.8154C83.2148 41.9247 83.2302 42.0335 83.2523 42.1415C83.285 42.2104 83.3366 42.272 83.4032 42.3215C83.4697 42.371 83.5493 42.407 83.6357 42.4265C83.8008 42.446 83.9672 42.4566 84.134 42.4582H85.997V43.9465H76.13V42.4582H77.8933C78.0601 42.4566 78.2266 42.446 78.3917 42.4265C78.4796 42.4065 78.561 42.3705 78.63 42.3212C78.6989 42.2719 78.7537 42.2105 78.7903 42.1415C78.8083 42.0365 78.8198 41.9308 78.8248 41.8249V39.4752C78.8248 39.396 78.8248 39.396 78.6983 39.2725L73.2895 34.1995C72.9982 33.9494 72.4998 33.5472 71.7332 33.5472H69.9775V32.0589H79.8982V33.5472H78.7022C78.4338 33.5472 78.2498 33.7689 78.4798 34.0095L81.8493 37.3377C81.8838 37.3757 81.9068 37.3757 81.9528 37.3472C81.9988 37.3187 85.3798 34.038 85.4028 34.0095C85.4312 33.9794 85.452 33.9449 85.4639 33.908C85.4758 33.8711 85.4787 33.8326 85.4722 33.7948C85.4658 33.757 85.4502 33.7206 85.4264 33.6879C85.4027 33.6551 85.3712 33.6267 85.3338 33.6042C85.2665 33.5653 85.1859 33.5454 85.1038 33.5472L83.8695 33.544ZM59.7808 33.5345H61.64C62.4872 33.5345 62.6367 33.8037 62.6482 34.456L62.7555 39.415L52.8578 32.0557H45.7853V33.544H47.3647C48.5032 33.544 48.5837 34.0634 48.5837 34.5257V41.5335C48.5837 41.9389 48.5875 42.4677 47.886 42.4677H45.9463V43.9465H54.2417V42.4582H52.2177C51.405 42.4582 51.3743 42.151 51.359 41.4987V35.539L62.7555 43.9339H65.6573L65.504 34.4465C65.5193 33.7562 65.5768 33.525 66.4355 33.525H68.2487V32.0367H59.7808V33.5345Z" fill="#FC3503" fill-opacity="0.84"/>
</g>
<defs>
<clipPath id="clip0_438_308">
<rect width="92" height="76" fill="white"/>
</clipPath>
</defs>
</svg>
