<svg width="82" height="70" viewBox="0 0 82 70" fill="none" xmlns="http://www.w3.org/2000/svg">
<g clip-path="url(#clip0_438_299)">
<path d="M76.5333 35C76.5333 38.9834 75.6142 42.9279 73.8285 46.6081C72.0428 50.2883 69.4254 53.6322 66.1259 56.4489C62.8263 59.2656 58.9091 61.5 54.598 63.0243C50.2869 64.5487 45.6663 65.3333 41 65.3333V70C51.8739 70 62.3024 66.3125 69.9914 59.7487C77.6804 53.185 82 44.2826 82 35H76.5333ZM41 65.3333C31.576 65.3333 22.5379 62.1375 15.8741 56.4489C9.21035 50.7603 5.46667 43.0449 5.46667 35H0C0 44.2826 4.31963 53.185 12.0086 59.7487C19.6976 66.3125 30.1261 70 41 70V65.3333ZM5.46667 35C5.46667 26.9551 9.21035 19.2397 15.8741 13.5511C22.5379 7.86249 31.576 4.66667 41 4.66667V0C30.1261 0 19.6976 3.68749 12.0086 10.2513C4.31963 16.815 0 25.7174 0 35H5.46667ZM41 4.66667C45.6663 4.66667 50.2869 5.45126 54.598 6.97565C58.9091 8.50005 62.8263 10.7344 66.1259 13.5511C69.4254 16.3678 72.0428 19.7117 73.8285 23.3919C75.6142 27.0721 76.5333 31.0166 76.5333 35H82C82 25.7174 77.6804 16.815 69.9914 10.2513C62.3024 3.68749 51.8739 0 41 0V4.66667ZM20.0189 47.208C25.4091 46.088 32.0456 45.598 38.5619 46.144C45.1 46.69 51.3211 48.2627 56.0661 51.114L59.2095 47.292C53.4531 43.8387 46.2261 42.098 39.0976 41.5007C32.2766 40.9376 25.3935 41.3349 18.7233 42.6767L20.0189 47.208ZM18.1821 37.296C37.0203 34.4493 50.1512 35.91 61.0353 42.5787L64.2224 38.7847C51.66 31.0847 36.8016 29.7453 17.2309 32.704L18.1821 37.296ZM16.9521 27.258C24.3485 25.0273 33.3685 24.1033 42.23 24.7193C51.1024 25.34 59.614 27.496 66.0865 31.2527L69.1533 27.3887C61.6968 23.0627 52.2121 20.734 42.6783 20.0713C33.1335 19.404 23.3317 20.384 15.1317 22.8573L16.9521 27.258Z" fill="#FC3503"/>
</g>
<defs>
<clipPath id="clip0_438_299">
<rect width="82" height="70" fill="white"/>
</clipPath>
</defs>
</svg>
