<svg width="185" height="62" viewBox="0 0 185 62" fill="none" xmlns="http://www.w3.org/2000/svg">
<path d="M7.19318 55L0.625 31.7273H5.15909L9.35227 48.8295H9.56818L14.0455 31.7273H18.1705L22.6591 48.8409H22.8636L27.0568 31.7273H31.5909L25.0227 55H20.8636L16.2045 38.6705H16.0227L11.3523 55H7.19318ZM33.2386 55V37.5455H37.2273V40.4545H37.4091C37.7273 39.447 38.2727 38.6705 39.0455 38.125C39.8258 37.572 40.7159 37.2955 41.7159 37.2955C41.9432 37.2955 42.197 37.3068 42.4773 37.3295C42.7652 37.3447 43.0038 37.3712 43.1932 37.4091V41.1932C43.0189 41.1326 42.7424 41.0795 42.3636 41.0341C41.9924 40.9811 41.6326 40.9545 41.2841 40.9545C40.5341 40.9545 39.8598 41.1174 39.2614 41.4432C38.6705 41.7614 38.2045 42.2045 37.8636 42.7727C37.5227 43.3409 37.3523 43.9962 37.3523 44.7386V55H33.2386ZM45.9261 55V37.5455H50.0398V55H45.9261ZM47.9943 35.0682C47.3428 35.0682 46.7822 34.8523 46.3125 34.4205C45.8428 33.9811 45.608 33.4545 45.608 32.8409C45.608 32.2197 45.8428 31.6932 46.3125 31.2614C46.7822 30.822 47.3428 30.6023 47.9943 30.6023C48.6534 30.6023 49.214 30.822 49.6761 31.2614C50.1458 31.6932 50.3807 32.2197 50.3807 32.8409C50.3807 33.4545 50.1458 33.9811 49.6761 34.4205C49.214 34.8523 48.6534 35.0682 47.9943 35.0682ZM62.9858 37.5455V40.7273H52.9517V37.5455H62.9858ZM55.429 33.3636H59.5426V49.75C59.5426 50.303 59.6259 50.7273 59.7926 51.0227C59.9669 51.3106 60.1941 51.5076 60.4744 51.6136C60.7547 51.7197 61.0653 51.7727 61.4062 51.7727C61.6638 51.7727 61.8987 51.7538 62.1108 51.7159C62.3305 51.678 62.4972 51.6439 62.6108 51.6136L63.304 54.8295C63.0843 54.9053 62.7699 54.9886 62.3608 55.0795C61.9593 55.1705 61.4669 55.2235 60.8835 55.2386C59.8532 55.2689 58.9252 55.1136 58.0994 54.7727C57.2737 54.4242 56.6184 53.8864 56.1335 53.1591C55.6563 52.4318 55.4214 51.5227 55.429 50.4318V33.3636ZM73.8523 55.3409C72.1477 55.3409 70.6705 54.9659 69.4205 54.2159C68.1705 53.4659 67.2008 52.4167 66.5114 51.0682C65.8295 49.7197 65.4886 48.1439 65.4886 46.3409C65.4886 44.5379 65.8295 42.9583 66.5114 41.6023C67.2008 40.2462 68.1705 39.1932 69.4205 38.4432C70.6705 37.6932 72.1477 37.3182 73.8523 37.3182C75.5568 37.3182 77.0341 37.6932 78.2841 38.4432C79.5341 39.1932 80.5 40.2462 81.1818 41.6023C81.8712 42.9583 82.2159 44.5379 82.2159 46.3409C82.2159 48.1439 81.8712 49.7197 81.1818 51.0682C80.5 52.4167 79.5341 53.4659 78.2841 54.2159C77.0341 54.9659 75.5568 55.3409 73.8523 55.3409ZM73.875 52.0455C74.7992 52.0455 75.572 51.7917 76.1932 51.2841C76.8144 50.7689 77.2765 50.0795 77.5795 49.2159C77.8902 48.3523 78.0455 47.3902 78.0455 46.3295C78.0455 45.2614 77.8902 44.2955 77.5795 43.4318C77.2765 42.5606 76.8144 41.8674 76.1932 41.3523C75.572 40.8371 74.7992 40.5795 73.875 40.5795C72.928 40.5795 72.1402 40.8371 71.5114 41.3523C70.8902 41.8674 70.4242 42.5606 70.1136 43.4318C69.8106 44.2955 69.6591 45.2614 69.6591 46.3295C69.6591 47.3902 69.8106 48.3523 70.1136 49.2159C70.4242 50.0795 70.8902 50.7689 71.5114 51.2841C72.1402 51.7917 72.928 52.0455 73.875 52.0455Z" fill="#FC3503"/>
<path d="M57 61.0224C57 61.2796 57.1197 61.5262 57.3327 61.7081C57.5457 61.89 57.8346 61.9922 58.1359 61.9922H128.811C128.961 61.9932 129.11 61.9683 129.249 61.919C129.387 61.8697 129.513 61.7969 129.618 61.7051L129.624 61.7012C129.631 61.6954 129.631 61.6838 129.64 61.6779C129.753 61.5689 129.836 61.4397 129.883 61.2997C129.899 61.2551 129.906 61.2125 129.915 61.1659C129.924 61.1174 129.949 61.0747 129.949 61.0243C129.949 60.9467 129.917 60.8789 129.897 60.8071C129.89 60.7799 129.904 60.7528 129.892 60.7256L122.714 41.883C122.659 41.7371 122.564 41.6047 122.437 41.4971L83.5518 8.29604C83.5109 8.24174 83.4813 8.18355 83.4268 8.13506L74.9329 0.883128C74.2686 0.317583 73.3687 0 72.4306 0C71.4925 0 70.5926 0.317583 69.9283 0.883128L58.0359 11.0366C57.368 11.6068 57 12.3652 57 13.172C57 13.9789 57.368 14.7392 58.0359 15.3094L66.3413 22.4004C66.3822 22.4527 66.4094 22.5129 66.464 22.5594L105.288 55.9292C105.421 56.045 105.587 56.1298 105.769 56.1755L121.019 60.0546H58.1359C57.9868 60.0543 57.8391 60.0791 57.7014 60.1277C57.5636 60.1762 57.4383 60.2474 57.3328 60.3373C57.2273 60.4272 57.1436 60.534 57.0865 60.6516C57.0294 60.7691 57 60.8951 57 61.0224ZM71.4526 19.6753L107.089 49.711L105.778 53.594L68.8742 21.8767L71.4526 19.6753ZM108.831 48.4561L73.0565 18.306L78.5926 13.5793L114.047 43.9292V48.4561H108.831ZM115.463 42.3951L80.1987 12.2081L82.559 10.1929L119.386 41.6348L115.463 42.3951ZM109.222 50.3957H115.183C115.484 50.3957 115.773 50.2935 115.986 50.1116C116.199 49.9298 116.319 49.6831 116.319 49.4259V44.2182L120.878 43.3338L127.064 59.5677L107.782 54.6626L109.222 50.3957ZM59.2717 13.172C59.2717 12.8831 59.4035 12.6135 59.642 12.4079L71.5344 2.25438C71.7724 2.05197 72.0947 1.93832 72.4306 1.93832C72.7665 1.93832 73.0888 2.05197 73.3268 2.25438L80.987 8.7945L67.3045 20.4763L59.6443 13.9362C59.5257 13.8365 59.4316 13.7175 59.3676 13.5862C59.3037 13.455 59.271 13.3142 59.2717 13.172Z" fill="black"/>
</svg>
