<svg width="410" height="262" viewBox="0 0 410 262" fill="none" xmlns="http://www.w3.org/2000/svg">
<path d="M22.4116 194.943L2.70703 125.125H16.3093L28.8889 176.432H29.5366L42.9684 125.125H55.3434L68.8093 176.466H69.4229L82.0025 125.125H95.6048L75.9002 194.943H63.4229L49.4457 145.955H48.9002L34.8889 194.943H22.4116ZM100.548 194.943V142.58H112.514V151.307H113.059C114.014 148.284 115.65 145.955 117.968 144.318C120.309 142.659 122.98 141.83 125.98 141.83C126.662 141.83 127.423 141.864 128.264 141.932C129.127 141.977 129.843 142.057 130.412 142.171V153.523C129.889 153.341 129.059 153.182 127.923 153.046C126.809 152.887 125.73 152.807 124.684 152.807C122.434 152.807 120.412 153.296 118.616 154.273C116.843 155.227 115.446 156.557 114.423 158.262C113.4 159.966 112.889 161.932 112.889 164.159V194.943H100.548ZM138.61 194.943V142.58H150.951V194.943H138.61ZM144.815 135.148C142.86 135.148 141.179 134.5 139.77 133.205C138.36 131.887 137.656 130.307 137.656 128.466C137.656 126.602 138.36 125.023 139.77 123.727C141.179 122.409 142.86 121.75 144.815 121.75C146.792 121.75 148.474 122.409 149.86 123.727C151.27 125.023 151.974 126.602 151.974 128.466C151.974 130.307 151.27 131.887 149.86 133.205C148.474 134.5 146.792 135.148 144.815 135.148ZM189.789 142.58V152.125H159.687V142.58H189.789ZM167.119 130.034H179.46V179.193C179.46 180.852 179.71 182.125 180.21 183.012C180.733 183.875 181.414 184.466 182.255 184.784C183.096 185.102 184.028 185.262 185.051 185.262C185.824 185.262 186.528 185.205 187.164 185.091C187.824 184.977 188.324 184.875 188.664 184.784L190.744 194.432C190.085 194.659 189.142 194.909 187.914 195.182C186.71 195.455 185.233 195.614 183.483 195.659C180.392 195.75 177.608 195.284 175.13 194.262C172.653 193.216 170.687 191.602 169.233 189.421C167.801 187.239 167.096 184.512 167.119 181.239V130.034ZM222.389 195.966C217.275 195.966 212.843 194.841 209.093 192.591C205.343 190.341 202.434 187.193 200.366 183.148C198.321 179.102 197.298 174.375 197.298 168.966C197.298 163.557 198.321 158.818 200.366 154.75C202.434 150.682 205.343 147.523 209.093 145.273C212.843 143.023 217.275 141.898 222.389 141.898C227.502 141.898 231.934 143.023 235.684 145.273C239.434 147.523 242.332 150.682 244.377 154.75C246.446 158.818 247.48 163.557 247.48 168.966C247.48 174.375 246.446 179.102 244.377 183.148C242.332 187.193 239.434 190.341 235.684 192.591C231.934 194.841 227.502 195.966 222.389 195.966ZM222.457 186.08C225.23 186.08 227.548 185.318 229.412 183.796C231.275 182.25 232.662 180.182 233.571 177.591C234.502 175 234.968 172.114 234.968 168.932C234.968 165.727 234.502 162.83 233.571 160.239C232.662 157.625 231.275 155.546 229.412 154C227.548 152.455 225.23 151.682 222.457 151.682C219.616 151.682 217.252 152.455 215.366 154C213.502 155.546 212.105 157.625 211.173 160.239C210.264 162.83 209.809 165.727 209.809 168.932C209.809 172.114 210.264 175 211.173 177.591C212.105 180.182 213.502 182.25 215.366 183.796C217.252 185.318 219.616 186.08 222.457 186.08Z" fill="#FC3503"/>
<path d="M134.832 209.627C134.832 210.506 135.283 211.35 136.086 211.972C136.889 212.594 137.978 212.943 139.114 212.943H405.542C406.108 212.947 406.669 212.862 407.191 212.693C407.714 212.524 408.187 212.276 408.582 211.962L408.607 211.948C408.633 211.928 408.633 211.889 408.667 211.869C409.094 211.496 409.407 211.054 409.584 210.575C409.644 210.423 409.669 210.277 409.704 210.118C409.738 209.952 409.832 209.806 409.832 209.633C409.832 209.368 409.712 209.136 409.635 208.891C409.609 208.798 409.661 208.705 409.618 208.612L382.556 144.174C382.351 143.675 381.993 143.222 381.512 142.854L234.925 29.3141C234.771 29.1283 234.66 28.9293 234.454 28.7635L202.434 3.96347C199.93 2.02943 196.538 0.943359 193.001 0.943359C189.465 0.943359 186.073 2.02943 183.568 3.96347L138.737 38.6862C136.219 40.6362 134.832 43.2297 134.832 45.9889C134.832 48.7482 136.219 51.3482 138.737 53.2983L170.046 77.5478C170.2 77.7269 170.303 77.9325 170.509 78.0917L316.864 192.209C317.366 192.605 317.991 192.895 318.679 193.051L376.168 206.317H139.114C138.552 206.316 137.995 206.401 137.476 206.567C136.957 206.733 136.484 206.977 136.087 207.284C135.689 207.592 135.373 207.957 135.158 208.359C134.943 208.761 134.832 209.192 134.832 209.627ZM189.315 68.2287L323.655 170.944L318.713 184.223L179.595 75.7569L189.315 68.2287ZM330.223 166.653L195.361 63.5459L216.231 47.3818L349.886 151.172V166.653H330.223ZM355.221 145.925L222.285 42.6924L231.183 35.8009L370.01 143.325L355.221 145.925ZM331.696 173.286H354.167C355.303 173.286 356.392 172.936 357.195 172.314C357.998 171.692 358.449 170.849 358.449 169.969V152.16L375.637 149.136L398.956 204.652L326.267 187.878L331.696 173.286ZM143.396 45.9889C143.396 45.0006 143.893 44.0787 144.792 43.3756L189.623 8.65286C190.52 7.96066 191.735 7.57201 193.001 7.57201C194.268 7.57201 195.483 7.96066 196.38 8.65286L225.257 31.0187L173.677 70.9681L144.8 48.6022C144.353 48.2611 143.999 47.8542 143.757 47.4054C143.516 46.9566 143.393 46.475 143.396 45.9889Z" fill="black"/>
</svg>
